<?xml version="1.0" standalone="no"?>
<!DOCTYPE svg PUBLIC "-//W3C//DTD SVG 20010904//EN"
 "http://www.w3.org/TR/2001/REC-SVG-20010904/DTD/svg10.dtd">
<svg version="1.0" xmlns="http://www.w3.org/2000/svg"
 width="512.000000pt" height="512.000000pt" viewBox="0 0 512.000000 512.000000"
 preserveAspectRatio="xMidYMid meet">

<g transform="translate(0.000000,512.000000) scale(0.100000,-0.100000)"
fill="#000000" stroke="none">
<path d="M1870 5106 c-105 -28 -198 -118 -230 -223 -11 -36 -20 -73 -20 -84 0
-18 -24 -18 -637 -21 l-638 -3 -57 -27 c-69 -32 -136 -97 -169 -163 -22 -46
-24 -64 -27 -210 -3 -154 -2 -162 20 -194 40 -59 71 -75 156 -81 l77 -5 76
-1831 c85 -2045 74 -1902 157 -2029 72 -112 204 -201 333 -225 37 -7 463 -9
1255 -8 l1199 3 62 23 c61 23 64 23 127 8 160 -40 366 -45 524 -11 483 101
854 483 938 966 24 141 15 370 -20 504 -129 484 -536 832 -1037 886 l-111 12
6 101 c4 56 20 434 37 841 16 407 32 746 34 753 3 8 25 12 65 12 77 0 120 18
156 66 l29 37 0 161 c0 144 -2 166 -22 208 -30 66 -105 143 -172 175 l-56 28
-640 5 -640 5 -6 46 c-19 130 -111 235 -239 273 -68 20 -458 22 -530 2z m506
-175 c48 -22 83 -66 91 -116 l6 -35 -342 0 c-228 0 -341 3 -341 10 0 21 31 85
53 109 42 46 68 50 287 50 179 1 210 -2 246 -18z m1435 -373 c21 -38 24 -58
27 -165 l4 -123 -1792 0 -1792 0 4 114 c3 127 12 149 78 194 l33 22 1707 0
1706 0 25 -42z m-235 -530 c-3 -35 -20 -418 -37 -853 -17 -434 -32 -800 -35
-812 -3 -15 -14 -25 -32 -29 -15 -4 -51 -18 -81 -30 -29 -13 -55 -24 -57 -24
-2 0 -4 287 -4 638 l0 637 -24 50 c-41 89 -142 155 -236 155 -62 0 -132 -31
-180 -80 -84 -83 -80 -33 -80 -1011 l0 -856 -50 -104 c-133 -280 -154 -593
-59 -889 27 -83 96 -223 151 -303 59 -87 208 -238 290 -294 l70 -48 -148 -3
c-82 -1 -594 -1 -1139 0 l-990 3 -62 29 c-101 46 -180 145 -197 246 -4 19 -38
793 -76 1720 -38 927 -72 1738 -76 1803 l-6 117 1532 0 1532 0 -6 -62z m346
-2174 c41 -21 80 -79 85 -127 14 -122 -114 -522 -167 -522 -37 0 -128 233
-157 405 -20 114 -14 154 30 204 54 63 135 78 209 40z m-28 -1195 c28 -22 36
-72 16 -108 -16 -31 -65 -46 -100 -31 -37 15 -50 37 -50 84 0 41 37 76 80 76
15 0 39 -9 54 -21z"/>
<path d="M1124 3750 c-66 -21 -127 -72 -159 -134 l-30 -60 0 -1420 0 -1421 23
-50 c42 -91 114 -143 209 -152 112 -10 204 39 255 136 l28 53 0 1432 c0 1364
-1 1433 -19 1471 -22 50 -71 99 -124 126 -46 24 -137 33 -183 19z"/>
<path d="M2064 3750 c-61 -19 -126 -73 -158 -130 l-31 -55 0 -1430 c0 -1299 1
-1433 16 -1466 92 -202 370 -214 471 -20 l28 53 0 1420 c0 1060 -3 1431 -12
1460 -15 50 -79 123 -131 150 -46 23 -137 32 -183 18z"/>
</g>
</svg>
